<svg width="16" height="14" viewBox="0 0 16 14" fill="none" xmlns="http://www.w3.org/2000/svg">
<path d="M7.63984 14L6.85675 13.2933C5.51 12.0567 4.3966 10.9899 3.51654 10.093C2.63648 9.19606 1.93543 8.39427 1.41337 7.68759C0.891314 6.9809 0.525239 6.34106 0.315143 5.76808C0.105048 5.19509 0 4.61573 0 4.03001C0 2.88206 0.385175 1.92341 1.15553 1.15405C1.92588 0.384685 2.87767 0 4.01091 0C4.7367 0 5.40837 0.171896 6.02592 0.515689C6.64347 0.859482 7.18145 1.35607 7.63984 2.00546C8.17463 1.31787 8.74125 0.811733 9.3397 0.48704C9.93815 0.162347 10.5812 0 11.2688 0C12.402 0 13.3538 0.384685 14.1241 1.15405C14.8945 1.92341 15.2797 2.88206 15.2797 4.03001C15.2797 4.61573 15.1746 5.19509 14.9645 5.76808C14.7544 6.34106 14.3884 6.9809 13.8663 7.68759C13.3442 8.39427 12.6432 9.19606 11.7631 10.093C10.8831 10.9899 9.76967 12.0567 8.42292 13.2933L7.63984 14ZM7.63984 12.4911C8.92888 11.307 9.98966 10.2916 10.8222 9.44479C11.6547 8.59801 12.3161 7.8563 12.8063 7.21965C13.2965 6.58299 13.6403 6.01551 13.8377 5.5172C14.035 5.01888 14.1337 4.52408 14.1337 4.03278C14.1337 3.19055 13.8663 2.49886 13.3315 1.95771C12.7967 1.41655 12.1106 1.14598 11.2731 1.14598C10.617 1.14598 10.0098 1.34652 9.45143 1.74761C8.89309 2.1487 8.44202 2.71214 8.09823 3.43793H7.16235C6.83129 2.72487 6.38658 2.16462 5.82824 1.75716C5.26988 1.3497 4.66267 1.14598 4.00662 1.14598C3.1691 1.14598 2.48295 1.41655 1.94816 1.95771C1.41337 2.49886 1.14598 3.19164 1.14598 4.03605C1.14598 4.52861 1.24466 5.02638 1.44202 5.52933C1.63938 6.03229 1.98317 6.60528 2.4734 7.24829C2.96362 7.89131 3.62892 8.63302 4.4693 9.4734C5.30969 10.3138 6.36653 11.3197 7.63984 12.4911Z" fill="#9D9DB5"/>
</svg>
