<svg width="16" height="14" viewBox="0 0 16 14" fill="none" xmlns="http://www.w3.org/2000/svg">
<path d="M7.63984 14L6.85675 13.2933C5.50705 12.0582 4.39291 10.9918 3.51432 10.0941C2.63574 9.19645 1.93543 8.39427 1.41337 7.68758C0.891314 6.9809 0.525239 6.34106 0.315143 5.76808C0.105048 5.19509 0 4.61573 0 4.03001C0 2.88404 0.385175 1.92588 1.15553 1.15553C1.92588 0.385175 2.87767 0 4.01091 0C4.7367 0 5.40837 0.171896 6.02592 0.515689C6.64347 0.859482 7.18145 1.35607 7.63984 2.00546C8.17463 1.31787 8.74125 0.811733 9.3397 0.48704C9.93815 0.162346 10.5812 0 11.2688 0C12.402 0 13.3538 0.385175 14.1241 1.15553C14.8945 1.92588 15.2797 2.88404 15.2797 4.03001C15.2797 4.61573 15.1746 5.19509 14.9645 5.76808C14.7544 6.34106 14.3884 6.9809 13.8663 7.68758C13.3442 8.39427 12.6439 9.19645 11.7653 10.0941C10.8868 10.9918 9.77262 12.0582 8.42292 13.2933L7.63984 14Z" fill="#0266FF"/>
</svg>
