<svg width="20" height="20" viewBox="0 0 20 20" fill="none" xmlns="http://www.w3.org/2000/svg">
<path fill-rule="evenodd" clip-rule="evenodd" d="M13.7071 6.29289C14.0976 6.68342 14.0976 7.31658 13.7071 7.70711L11.4139 10.0003L13.7071 12.2935C14.0976 12.6841 14.0976 13.3172 13.7071 13.7077C13.3166 14.0983 12.6834 14.0983 12.2929 13.7077L9.99968 11.4145L7.70711 13.7071C7.31658 14.0976 6.68342 14.0976 6.29289 13.7071C5.90237 13.3166 5.90237 12.6834 6.29289 12.2929L8.58547 10.0003L6.29289 7.70775C5.90237 7.31722 5.90237 6.68406 6.29289 6.29353C6.68342 5.90301 7.31658 5.90301 7.70711 6.29353L9.99968 8.58611L12.2929 6.29289C12.6834 5.90237 13.3166 5.90237 13.7071 6.29289Z" fill="#0266FF"/>
<rect x="0.5" y="0.5" width="19" height="19" rx="9.5" stroke="#0266FF"/>
</svg>
